<?xml version="1.0" encoding="utf-8"?>
<!-- Generator: Adobe Illustrator 24.2.3, SVG Export Plug-In . SVG Version: 6.00 Build 0)  -->
<svg version="1.1" xmlns="http://www.w3.org/2000/svg" xmlns:xlink="http://www.w3.org/1999/xlink" x="0px" y="0px"
	 viewBox="0 0 348 348" style="enable-background:new 0 0 348 348;" xml:space="preserve">
<style type="text/css">
	.st0{display:none;}
	.st1{fill:none;stroke:#000000;stroke-width:2;}
</style>
<g id="Layer_2" class="st0">
	
		<image style="display:inline;overflow:visible;opacity:0.5;" width="1063" height="1063" xlink:href="C:\Users\noahf\Desktop\BlaseballPreview.png"  transform="matrix(0.3274 0 0 0.3274 0 0)">
	</image>
</g>
<g id="Layer_1">
	<path class="st1" d="M5.1,5.8H342v337.7H5.1L5.1,5.8z"/>
	<path class="st1" d="M282.7,40.6c0-8.4,7-15.2,15.6-15.2c4.1,0,8.1,1.6,11,4.4c2.9,2.8,4.6,6.7,4.6,10.7c0,8.4-7,15.2-15.6,15.2
		C289.7,55.7,282.7,48.9,282.7,40.6L282.7,40.6z"/>
</g>
<g id="Layer_3">
	<rect x="37.5" y="26" class="st1" width="188.9" height="48.3"/>
</g>
<g id="Layer_4">
	<rect x="37.5" y="130.1" class="st1" width="42.3" height="48.8"/>
	<rect x="266.1" y="130.1" class="st1" width="42.3" height="48.8"/>
	<rect x="85.1" y="130.1" class="st1" width="175.5" height="48.8"/>
</g>
<g id="Layer_4_copy">
	<rect x="37.5" y="256.1" class="st1" width="42.3" height="48.8"/>
	<rect x="266.1" y="256.1" class="st1" width="42.3" height="48.8"/>
	<rect x="85.1" y="256.1" class="st1" width="175.5" height="48.8"/>
</g>
<g id="Layer_6">
	<rect x="147.9" y="191.8" class="st1" width="50.4" height="50.4"/>
	<rect x="210.2" y="191.8" class="st1" width="50.4" height="50.4"/>
	<rect x="85.1" y="191.8" class="st1" width="50.4" height="50.4"/>
</g>
<g id="Layer_7">
	<g>
		<g>
			<path d="M57.4,60.3v-1.2c0.6,0,1-0.1,1.3-0.4c0.3-0.2,0.4-0.6,0.5-1c0.1-0.5,0.1-1,0.1-1.7V44.7c0-0.5,0-0.9,0-1.3
				c0-0.4,0-0.7,0.1-1c-0.3,0-0.7,0-1,0.1c-0.4,0-0.7,0-1,0.1V41c1.1,0,2.2,0,3.3,0s2.2,0,3.4,0c2.2,0,3.9,0.4,5.1,1.2
				c1.2,0.8,1.8,2,1.8,3.7c0,0.6-0.2,1.1-0.5,1.7c-0.3,0.6-0.8,1.1-1.4,1.5c-0.6,0.4-1.4,0.8-2.4,1V50c2,0.1,3.4,0.6,4.4,1.5
				c1,0.9,1.5,2.1,1.5,3.4c0,1.1-0.3,2.1-0.9,2.9s-1.4,1.4-2.3,1.9c-1,0.4-2.1,0.6-3.4,0.6H57.4z M62.1,59c0.3,0,0.7,0,1,0
				c0.4,0,0.7,0,1.1,0c0.3,0,0.6,0,0.8,0c1.3,0,2.4-0.4,3.1-1.1c0.8-0.7,1.1-1.7,1.1-2.9c0-1-0.2-1.8-0.6-2.4s-1-1-1.6-1.2
				c-0.7-0.2-1.4-0.4-2.1-0.4c-0.5,0-1,0-1.4,0c-0.4,0-0.8,0-1.3,0v5.7c0,0.5,0,0.9,0,1.3C62.2,58.4,62.2,58.7,62.1,59z M62.2,49.7
				l1.8-0.1c1,0,1.7-0.2,2.3-0.6c0.6-0.4,1-0.9,1.2-1.5c0.2-0.6,0.3-1.2,0.3-1.9c0-0.9-0.2-1.6-0.6-2.1c-0.4-0.5-0.9-0.8-1.4-1
				c-0.6-0.2-1.1-0.3-1.7-0.3c-0.5,0-0.9,0.1-1.2,0.2c-0.3,0.1-0.5,0.4-0.6,0.8s-0.2,0.9-0.2,1.6V49.7z"/>
			<path d="M74.9,60.3v-1.2c0.6,0,1-0.2,1.3-0.4c0.3-0.2,0.4-0.6,0.5-1c0.1-0.4,0.1-1,0.1-1.7V44.6c0-0.4,0-0.8,0-1.2
				c0-0.4,0-0.7,0.1-1c-0.3,0-0.7,0-1,0.1c-0.4,0-0.7,0-1,0.1V41h6.8v1.2c-0.6,0-1,0.1-1.3,0.4s-0.5,0.6-0.5,1
				c-0.1,0.4-0.1,1-0.1,1.7v11.4c0,0.5,0,0.9,0,1.3c0,0.4,0,0.7-0.1,0.9l4.7-0.1c1.1,0,2-0.4,2.6-1.1c0.6-0.7,0.9-1.9,0.9-3.5h1.2
				l-0.2,6H74.9z"/>
			<path d="M89.5,60.3v-1.2c0.6,0,1-0.1,1.3-0.4c0.3-0.3,0.5-0.7,0.7-1.2c0.2-0.5,0.4-1.1,0.7-1.7l5.6-15.3h1.1l6,15.5
				c0.1,0.3,0.3,0.8,0.5,1.4c0.2,0.6,0.3,1.1,0.2,1.5c0.3,0,0.6-0.1,0.9-0.1s0.6,0,0.9,0v1.5h-6.7v-1.2c0.6,0,1.1-0.2,1.3-0.4
				s0.3-0.6,0.2-1s-0.1-0.8-0.3-1.2l-0.8-2.2l-6.8,0.2l-0.8,2.4c-0.1,0.4-0.2,0.7-0.4,1c-0.1,0.3-0.3,0.7-0.4,1
				c0.3,0,0.7-0.1,1.1-0.1c0.4,0,0.7,0,1,0v1.5H89.5z M94.9,53h5.8L99,48.3c-0.2-0.6-0.4-1.2-0.6-1.8c-0.2-0.6-0.4-1.2-0.6-1.7h0
				c-0.1,0.5-0.3,1-0.5,1.5c-0.2,0.6-0.4,1.2-0.6,1.8L94.9,53z"/>
			<path d="M119.7,47c-0.1-0.9-0.3-1.8-0.7-2.5c-0.4-0.8-0.9-1.4-1.6-1.8c-0.7-0.5-1.5-0.7-2.5-0.6c-1,0-1.8,0.3-2.5,0.9
				c-0.6,0.6-0.9,1.3-0.9,2.1c0,0.7,0.2,1.3,0.6,1.8c0.4,0.5,1,0.9,1.6,1.3c0.7,0.4,1.5,0.8,2.3,1.2c0.7,0.3,1.4,0.6,2.1,1
				c0.7,0.4,1.4,0.8,2,1.3c0.6,0.5,1.1,1,1.4,1.7c0.3,0.7,0.5,1.4,0.5,2.3c0,1-0.3,2-0.8,2.8c-0.5,0.8-1.3,1.4-2.3,1.9
				c-1,0.5-2.2,0.7-3.6,0.7c-0.8,0-1.6-0.1-2.5-0.4c-0.9-0.2-1.7-0.6-2.4-1l0.1,1.2H109l-0.1-6.1h1.3c0.1,1.6,0.7,2.8,1.7,3.6
				s2.2,1.2,3.6,1.2c0.7,0,1.3-0.1,1.9-0.4s1-0.6,1.4-1.1s0.5-1,0.5-1.7c0-0.8-0.2-1.4-0.7-1.9s-1-1-1.7-1.3c-0.7-0.4-1.4-0.7-2.2-1
				c-0.8-0.3-1.5-0.7-2.2-1c-0.7-0.4-1.3-0.8-1.9-1.3c-0.6-0.5-1-1-1.4-1.7c-0.3-0.7-0.5-1.4-0.5-2.3c0-0.5,0.1-1.1,0.3-1.6
				c0.2-0.6,0.5-1.1,0.9-1.6c0.4-0.5,1-0.9,1.8-1.3c0.8-0.3,1.7-0.5,2.9-0.5c0.7,0,1.5,0.1,2.4,0.3c0.9,0.2,1.7,0.6,2.4,1.1
				l-0.1-1.2h1.7V47H119.7z"/>
			<path d="M134.2,53.4c0-0.8-0.1-1.4-0.3-1.7c-0.2-0.3-0.6-0.6-1-0.6c-0.5-0.1-1-0.1-1.7-0.1l-1.6,0.1v5.7c0,0.5,0,0.9,0,1.3
				c0,0.4,0,0.7-0.1,0.9l4.7-0.1c0.7,0,1.4-0.2,1.9-0.4c0.6-0.2,1-0.7,1.4-1.3c0.3-0.6,0.5-1.4,0.5-2.5h1.2l-0.2,5.6h-14.4v-1.2
				c0.6,0,1-0.2,1.3-0.4c0.3-0.2,0.4-0.6,0.5-1c0.1-0.4,0.1-1,0.1-1.7V44.6c0-0.4,0-0.8,0-1.2c0-0.4,0-0.7,0.1-1c-0.3,0-0.7,0-1,0.1
				c-0.4,0-0.7,0-1,0.1V41h13.5l0.1,5h-1.2c0-1-0.2-1.8-0.5-2.4c-0.3-0.6-0.8-0.9-1.3-1.1c-0.5-0.2-1.1-0.3-1.8-0.2l-1.9,0.1
				c-0.6,0-1,0.1-1.3,0.3c-0.3,0.2-0.5,0.5-0.6,0.9c-0.1,0.4-0.1,1-0.1,1.8v4.3h4.6l-0.2-2.4h1.5v6.1H134.2z"/>
			<path d="M141.9,60.3v-1.2c0.6,0,1-0.1,1.3-0.4c0.3-0.2,0.4-0.6,0.5-1c0.1-0.5,0.1-1,0.1-1.7V44.7c0-0.5,0-0.9,0-1.3
				c0-0.4,0-0.7,0.1-1c-0.3,0-0.7,0-1,0.1c-0.4,0-0.7,0-1,0.1V41c1.1,0,2.2,0,3.3,0s2.2,0,3.4,0c2.2,0,3.9,0.4,5.1,1.2
				c1.2,0.8,1.8,2,1.8,3.7c0,0.6-0.2,1.1-0.5,1.7c-0.3,0.6-0.8,1.1-1.4,1.5c-0.6,0.4-1.4,0.8-2.4,1V50c2,0.1,3.4,0.6,4.4,1.5
				c1,0.9,1.5,2.1,1.5,3.4c0,1.1-0.3,2.1-0.9,2.9s-1.4,1.4-2.3,1.9c-1,0.4-2.1,0.6-3.4,0.6H141.9z M146.6,59c0.3,0,0.7,0,1,0
				c0.4,0,0.7,0,1.1,0c0.3,0,0.6,0,0.8,0c1.3,0,2.4-0.4,3.1-1.1c0.8-0.7,1.1-1.7,1.1-2.9c0-1-0.2-1.8-0.6-2.4s-1-1-1.6-1.2
				c-0.7-0.2-1.4-0.4-2.1-0.4c-0.5,0-1,0-1.4,0c-0.4,0-0.8,0-1.3,0v5.7c0,0.5,0,0.9,0,1.3C146.7,58.4,146.7,58.7,146.6,59z
				 M146.7,49.7l1.8-0.1c1,0,1.7-0.2,2.3-0.6c0.6-0.4,1-0.9,1.2-1.5c0.2-0.6,0.3-1.2,0.3-1.9c0-0.9-0.2-1.6-0.6-2.1
				c-0.4-0.5-0.9-0.8-1.4-1c-0.6-0.2-1.1-0.3-1.7-0.3c-0.5,0-0.9,0.1-1.2,0.2c-0.3,0.1-0.5,0.4-0.6,0.8s-0.2,0.9-0.2,1.6V49.7z"/>
			<path d="M157.9,60.3v-1.2c0.6,0,1-0.1,1.3-0.4c0.3-0.3,0.5-0.7,0.7-1.2c0.2-0.5,0.4-1.1,0.7-1.7l5.6-15.3h1.1l6,15.5
				c0.1,0.3,0.3,0.8,0.5,1.4c0.2,0.6,0.3,1.1,0.2,1.5c0.3,0,0.6-0.1,0.9-0.1c0.3,0,0.6,0,0.9,0v1.5h-6.7v-1.2c0.6,0,1.1-0.2,1.3-0.4
				s0.3-0.6,0.2-1s-0.1-0.8-0.3-1.2l-0.8-2.2l-6.8,0.2l-0.8,2.4c-0.1,0.4-0.2,0.7-0.4,1c-0.1,0.3-0.3,0.7-0.4,1
				c0.3,0,0.7-0.1,1.1-0.1c0.4,0,0.7,0,1,0v1.5H157.9z M163.2,53h5.8l-1.7-4.7c-0.2-0.6-0.4-1.2-0.6-1.8c-0.2-0.6-0.4-1.2-0.6-1.7h0
				c-0.1,0.5-0.3,1-0.5,1.5c-0.2,0.6-0.4,1.2-0.6,1.8L163.2,53z"/>
			<path d="M177.1,60.3v-1.2c0.6,0,1-0.2,1.3-0.4c0.3-0.2,0.4-0.6,0.5-1c0.1-0.4,0.1-1,0.1-1.7V44.6c0-0.4,0-0.8,0-1.2
				c0-0.4,0-0.7,0.1-1c-0.3,0-0.7,0-1,0.1c-0.4,0-0.7,0-1,0.1V41h6.8v1.2c-0.6,0-1,0.1-1.3,0.4c-0.3,0.2-0.5,0.6-0.5,1
				c-0.1,0.4-0.1,1-0.1,1.7v11.4c0,0.5,0,0.9,0,1.3c0,0.4,0,0.7-0.1,0.9l4.7-0.1c1.1,0,2-0.4,2.6-1.1c0.6-0.7,0.9-1.9,0.9-3.5h1.2
				l-0.2,6H177.1z"/>
			<path d="M193.3,60.3v-1.2c0.6,0,1-0.2,1.3-0.4c0.3-0.2,0.4-0.6,0.5-1c0.1-0.4,0.1-1,0.1-1.7V44.6c0-0.4,0-0.8,0-1.2
				c0-0.4,0-0.7,0.1-1c-0.3,0-0.7,0-1,0.1c-0.4,0-0.7,0-1,0.1V41h6.8v1.2c-0.6,0-1,0.1-1.3,0.4c-0.3,0.2-0.5,0.6-0.5,1
				c-0.1,0.4-0.1,1-0.1,1.7v11.4c0,0.5,0,0.9,0,1.3c0,0.4,0,0.7-0.1,0.9l4.7-0.1c1.1,0,2-0.4,2.6-1.1c0.6-0.7,0.9-1.9,0.9-3.5h1.2
				l-0.2,6H193.3z"/>
		</g>
	</g>
</g>
<g id="Layer_7_copy">
	<g>
		<g>
			<path d="M115.2,162.3v-0.7c0.4,0,0.8-0.1,1-0.3c0.2-0.2,0.4-0.5,0.6-1c0.2-0.4,0.3-0.9,0.5-1.4l4.4-12.1h0.5l4.8,12.3
				c0.1,0.3,0.2,0.7,0.4,1.2s0.2,0.9,0.2,1.2c0.2,0,0.5,0,0.7,0c0.2,0,0.5,0,0.7,0v1h-4.9v-0.7c0.5,0,0.9-0.1,1.1-0.4
				c0.2-0.2,0.2-0.5,0.2-0.8c0-0.3-0.1-0.6-0.2-0.9l-0.8-2l-5.6,0.1l-0.8,2.3c-0.1,0.3-0.2,0.6-0.3,0.8c-0.1,0.2-0.2,0.4-0.3,0.7
				c0.3,0,0.6,0,0.9,0c0.3,0,0.6,0,0.8,0v1H115.2z M119.2,156.7h5l-1.5-4.1c-0.2-0.4-0.3-0.9-0.5-1.3c-0.2-0.4-0.3-0.9-0.5-1.3h0
				c-0.1,0.4-0.3,0.8-0.4,1.2s-0.3,0.8-0.5,1.2L119.2,156.7z"/>
			<path d="M133.5,162.4l-2.8-8.3c-0.1-0.3-0.2-0.6-0.3-0.8c-0.1-0.2-0.1-0.4-0.2-0.6c0-0.2-0.1-0.3-0.1-0.4l-1.1,0.1v-0.9h4.6v0.6
				c-0.6,0-1,0.2-1.1,0.7s0,1,0.2,1.7l1,3c0.1,0.3,0.2,0.7,0.3,1c0.1,0.4,0.2,0.7,0.3,1c0.1-0.4,0.3-0.8,0.4-1.2
				c0.1-0.4,0.3-0.8,0.4-1.2l1.9-5.7h0.9l2.2,6.3c0.1,0.3,0.2,0.6,0.3,1c0.1,0.3,0.2,0.7,0.3,1c0.1-0.3,0.2-0.6,0.3-0.9
				s0.2-0.6,0.3-0.9l1.4-4.1c0.1-0.3,0.2-0.6,0.3-0.8c0.1-0.3,0.2-0.5,0.3-0.6l-1.3,0.1v-0.9h3.8v0.6c-0.4,0-0.7,0.1-0.9,0.2
				c-0.2,0.1-0.4,0.2-0.6,0.3c-0.2,0.1-0.3,0.3-0.4,0.5c-0.1,0.2-0.2,0.4-0.3,0.7l-3.1,8.5H140l-2.1-5.9c-0.1-0.3-0.2-0.5-0.3-0.8
				s-0.2-0.5-0.3-0.8c-0.1-0.3-0.2-0.5-0.3-0.7c-0.1,0.2-0.2,0.5-0.3,0.7c-0.1,0.3-0.2,0.5-0.3,0.8s-0.2,0.5-0.3,0.8l-2,5.9H133.5z"
				/>
			<path d="M153.7,162.3c0-0.2-0.1-0.5-0.1-0.6c0-0.2,0-0.4-0.1-0.6c-0.5,0.5-1,0.9-1.6,1.2s-1.2,0.4-1.8,0.4
				c-1.1,0-1.9-0.2-2.4-0.7c-0.5-0.5-0.8-1.1-0.8-1.8c0-0.7,0.2-1.2,0.6-1.7c0.4-0.5,0.9-0.9,1.6-1.2s1.4-0.5,2.1-0.7
				c0.8-0.2,1.5-0.2,2.2-0.2v-1.3c0-0.5,0-1-0.1-1.4s-0.3-0.8-0.6-1.1c-0.3-0.3-0.7-0.4-1.4-0.5c-0.4,0-0.8,0.1-1.3,0.2
				c-0.4,0.2-0.8,0.5-1,0.9c0.1,0.1,0.2,0.2,0.2,0.4c0,0.2,0.1,0.3,0.1,0.4c0,0.2-0.1,0.4-0.2,0.6c-0.1,0.2-0.4,0.3-0.8,0.3
				c-0.3,0-0.5-0.1-0.7-0.3c-0.2-0.2-0.2-0.5-0.2-0.7c0-0.5,0.2-0.9,0.6-1.3s0.9-0.7,1.5-0.9s1.4-0.3,2.2-0.3c1.2,0,2.1,0.3,2.7,1
				c0.6,0.6,0.9,1.7,0.8,3c0,0.5,0,1.1,0,1.6s0,1.1,0,1.6c0,0.5,0,1.1,0,1.6c0,0.2,0,0.5,0,0.7c0,0.2,0,0.5-0.1,0.8
				c0.3,0,0.5,0,0.8,0c0.3,0,0.5,0,0.8,0v0.9H153.7z M153.5,157c-0.5,0-1,0.1-1.5,0.2s-1,0.3-1.5,0.5c-0.5,0.2-0.8,0.5-1.1,0.9
				s-0.4,0.8-0.4,1.3c0,0.5,0.2,0.9,0.5,1.2c0.3,0.3,0.7,0.4,1.2,0.4c0.6,0,1.1-0.1,1.5-0.3c0.4-0.2,0.9-0.5,1.3-0.9
				c0-0.2,0-0.3,0-0.5s0-0.4,0-0.6c0-0.1,0-0.3,0-0.7C153.5,158,153.5,157.5,153.5,157z"/>
			<path d="M159.9,168.2c-0.4,0-0.8-0.1-1.1-0.3c-0.3-0.2-0.5-0.5-0.5-1c0-0.3,0.1-0.5,0.3-0.7s0.4-0.3,0.7-0.3
				c0.3,0,0.6,0.1,0.7,0.3c0.1,0.2,0.2,0.4,0.2,0.6c0,0,0,0.1,0,0.1c0,0.1,0,0.1,0,0.2c0,0,0.1,0,0.2,0c0.2,0,0.4-0.1,0.6-0.2
				c0.2-0.1,0.4-0.4,0.5-0.6c0.2-0.3,0.4-0.8,0.7-1.4s0.5-1.4,0.9-2.3l-3.4-7.2c-0.4-0.8-0.6-1.4-0.8-1.9c-0.2-0.5-0.3-0.8-0.3-1.1
				l-1,0v-0.9h4.5v0.6h-0.1c-0.6,0-0.9,0.3-1,0.7c-0.1,0.4,0.1,1,0.5,1.9l2.5,5.4c0.3-0.9,0.6-1.8,1-2.7c0.3-0.9,0.6-1.8,0.9-2.7
				c0.1-0.3,0.2-0.6,0.4-1c0.1-0.3,0.2-0.6,0.4-0.9c0.1-0.3,0.2-0.4,0.3-0.5l-1.5,0.1v-0.9h3.4v0.6c-0.5,0.2-0.9,0.5-1.2,1
				c-0.3,0.5-0.5,1.1-0.8,1.8l-2.7,7.5c-0.4,1.2-0.8,2.2-1.2,3.1s-0.8,1.5-1.2,1.9C161.1,167.9,160.6,168.2,159.9,168.2z"/>
			<path d="M186.9,151.7c0-0.8-0.1-1.6-0.3-2.1s-0.4-1-0.8-1.3c-0.4-0.3-1-0.4-1.7-0.4h-1.8l0,11.8c0,0.4,0,0.7,0,1
				c0,0.3,0,0.5-0.1,0.7c0.3,0,0.6,0,0.9,0c0.3,0,0.6,0,0.9,0v1h-5.1v-0.7c0.5,0,0.9-0.2,1.1-0.4c0.2-0.2,0.3-0.5,0.3-0.9
				c0-0.4,0-0.8,0-1.3l0-11l-2.2,0c-0.9,0-1.5,0.3-1.9,0.9c-0.4,0.6-0.6,1.5-0.6,2.8h-0.8l0.1-4.6h12.6l0.1,4.6H186.9z"/>
			<path d="M194.4,162.6c-1,0-1.9-0.2-2.7-0.7c-0.8-0.5-1.4-1.1-1.9-2c-0.5-0.9-0.7-1.9-0.7-3c0-1,0.2-2,0.7-2.8
				c0.5-0.9,1.1-1.6,1.9-2.1c0.8-0.5,1.8-0.8,2.9-0.8c0.6,0,1.2,0.1,1.7,0.3s1,0.5,1.4,0.9c0.4,0.4,0.7,0.9,1,1.5
				c0.2,0.6,0.3,1.3,0.3,2.1l-7.6,0.1c0,1.1,0.1,2.1,0.4,2.9c0.2,0.8,0.6,1.5,1.2,1.9c0.5,0.5,1.2,0.7,2.1,0.7
				c0.4,0,0.9-0.1,1.4-0.2c0.5-0.2,0.9-0.4,1.3-0.6c0.4-0.3,0.7-0.6,1-0.9l0.5,0.4c-0.4,0.6-0.9,1.1-1.4,1.4
				c-0.5,0.4-1.1,0.6-1.7,0.8C195.4,162.6,194.9,162.6,194.4,162.6z M191.4,155.1h5.5c0-0.5-0.1-1-0.2-1.5c-0.2-0.5-0.4-0.9-0.7-1.2
				c-0.3-0.3-0.8-0.5-1.4-0.5c-0.8,0-1.5,0.2-2.1,0.7C192,153.2,191.6,154,191.4,155.1z"/>
			<path d="M207.5,162.3c0-0.2-0.1-0.5-0.1-0.6c0-0.2,0-0.4-0.1-0.6c-0.5,0.5-1,0.9-1.6,1.2c-0.6,0.3-1.2,0.4-1.8,0.4
				c-1.1,0-1.9-0.2-2.4-0.7c-0.5-0.5-0.8-1.1-0.8-1.8c0-0.7,0.2-1.2,0.6-1.7c0.4-0.5,0.9-0.9,1.6-1.2s1.4-0.5,2.1-0.7
				c0.8-0.2,1.5-0.2,2.2-0.2v-1.3c0-0.5,0-1-0.1-1.4c-0.1-0.4-0.3-0.8-0.6-1.1s-0.7-0.4-1.4-0.5c-0.4,0-0.8,0.1-1.3,0.2
				c-0.4,0.2-0.8,0.5-1,0.9c0.1,0.1,0.2,0.2,0.2,0.4c0,0.2,0.1,0.3,0.1,0.4c0,0.2-0.1,0.4-0.2,0.6c-0.1,0.2-0.4,0.3-0.8,0.3
				c-0.3,0-0.5-0.1-0.7-0.3c-0.2-0.2-0.2-0.5-0.2-0.7c0-0.5,0.2-0.9,0.6-1.3s0.9-0.7,1.5-0.9c0.6-0.2,1.4-0.3,2.2-0.3
				c1.2,0,2.1,0.3,2.7,1c0.6,0.6,0.9,1.7,0.8,3c0,0.5,0,1.1,0,1.6s0,1.1,0,1.6c0,0.5,0,1.1,0,1.6c0,0.2,0,0.5,0,0.7
				c0,0.2,0,0.5-0.1,0.8c0.3,0,0.5,0,0.8,0c0.3,0,0.5,0,0.8,0v0.9H207.5z M207.3,157c-0.5,0-1,0.1-1.5,0.2s-1,0.3-1.5,0.5
				c-0.5,0.2-0.8,0.5-1.1,0.9c-0.3,0.4-0.4,0.8-0.4,1.3c0,0.5,0.2,0.9,0.5,1.2c0.3,0.3,0.7,0.4,1.2,0.4c0.6,0,1.1-0.1,1.5-0.3
				s0.9-0.5,1.3-0.9c0-0.2,0-0.3,0-0.5s0-0.4,0-0.6c0-0.1,0-0.3,0-0.7C207.3,158,207.3,157.5,207.3,157z"/>
			<path d="M212,162.3v-0.6c0.4,0,0.8-0.1,0.9-0.3c0.2-0.2,0.3-0.5,0.3-0.9c0-0.4,0-0.9,0-1.4v-4.9c0-0.2,0-0.5,0-0.7
				c0-0.2,0-0.5,0.1-0.7c-0.3,0-0.5,0-0.8,0c-0.3,0-0.5,0-0.8,0v-0.9c0.6,0,1.1,0,1.4-0.1s0.6-0.1,0.7-0.2s0.3-0.2,0.4-0.3h0.6
				c0,0.1,0,0.3,0.1,0.5c0,0.2,0,0.4,0,0.6c0.4-0.4,0.9-0.7,1.5-0.9c0.6-0.2,1.1-0.4,1.7-0.4c0.7,0,1.3,0.1,1.8,0.4
				c0.5,0.3,0.9,0.6,1.1,1.1c0.5-0.4,1.1-0.7,1.7-1c0.6-0.3,1.3-0.4,1.9-0.4c1.3,0,2.2,0.4,2.8,1.1c0.6,0.8,0.9,2,0.8,3.7l0,4
				c0,0.3,0,0.5,0,0.8c0,0.2,0,0.5-0.1,0.7c0.2,0,0.5,0,0.7,0c0.2,0,0.5,0,0.7,0v0.9h-4.4v-0.6c0.4,0,0.8-0.1,0.9-0.3
				c0.2-0.2,0.3-0.5,0.3-0.9c0-0.4,0-0.9,0-1.4v-3c0-1.2-0.2-2.2-0.6-2.8c-0.4-0.6-1-0.9-1.9-0.9c-0.4,0-0.9,0.1-1.3,0.3
				s-0.8,0.5-1.2,0.8c0.1,0.2,0.1,0.5,0.2,0.7c0,0.3,0.1,0.5,0.1,0.8c0,0.8,0,1.7,0,2.5s0,1.7,0,2.5c0,0.3,0,0.5,0,0.8
				c0,0.2,0,0.5-0.1,0.7c0.2,0,0.5,0,0.7,0c0.2,0,0.5,0,0.7,0v0.9h-4.4v-0.6c0.4,0,0.8-0.1,0.9-0.3c0.2-0.2,0.3-0.5,0.3-0.9
				c0-0.4,0.1-0.9,0.1-1.4l0-3c0-1.2-0.2-2.2-0.5-2.8c-0.4-0.6-1-0.9-1.8-0.9c-0.4,0-0.9,0.1-1.3,0.3c-0.4,0.2-0.8,0.4-1.1,0.7
				c0,0.2,0,0.4,0,0.6c0,0.2,0,0.4,0,0.6v5.6c0,0.3,0,0.5,0,0.8c0,0.2,0,0.5-0.1,0.7c0.2,0,0.5,0,0.7,0c0.2,0,0.4,0,0.7,0v0.9H212z"
				/>
		</g>
	</g>
	<g>
		<g>
			<path d="M64.5,162.1l-12.3-5.4v-1.8l12.3-5.5v1.7l-10.4,4.6l10.4,4.6V162.1z"/>
		</g>
	</g>
	<g>
		<g>
			<path d="M281.1,149.4l12.3,5.4v1.8l-12.3,5.5v-1.7l10.4-4.6l-10.4-4.6V149.4z"/>
		</g>
	</g>
</g>
<g id="Layer_7_copy_2">
	<g>
		<g>
			<path d="M113,287.1v-0.7c0.5,0,0.9-0.2,1.1-0.4c0.2-0.2,0.3-0.5,0.3-0.9c0-0.4,0-0.8,0-1.3v-9.3c0-0.3,0-0.6,0-0.8
				c0-0.3,0-0.5,0-0.7c-0.3,0-0.5,0-0.8,0c-0.3,0-0.5,0-0.8,0v-1h4.9v0.7c-0.5,0-0.9,0.1-1.1,0.4c-0.2,0.2-0.3,0.5-0.3,0.9
				c0,0.4,0,0.8,0,1.4v3.6h7.7v-4.5c0-0.3,0-0.6,0-0.8c0-0.3,0-0.5,0-0.7c-0.3,0-0.5,0-0.8,0c-0.3,0-0.5,0-0.8,0v-1h4.9v0.7
				c-0.5,0-0.9,0.1-1.1,0.4c-0.2,0.2-0.3,0.5-0.3,0.9c0,0.4,0,0.8,0,1.4v9.2c0,0.4,0,0.7,0,1c0,0.3,0,0.5-0.1,0.7c0.3,0,0.5,0,0.8,0
				c0.3,0,0.5,0,0.8,0v1h-4.9v-0.7c0.5,0,0.9-0.2,1.1-0.4c0.2-0.2,0.3-0.5,0.3-0.9c0-0.4,0-0.8,0-1.3v-3.9l-7.7,0.1v4.6
				c0,0.4,0,0.7,0,1c0,0.3,0,0.5-0.1,0.7c0.3,0,0.5,0,0.8,0c0.3,0,0.5,0,0.8,0v1H113z"/>
			<path d="M134.9,287.4c-1,0-1.9-0.2-2.7-0.7s-1.5-1.1-2-1.9c-0.5-0.8-0.7-1.8-0.7-2.8c0-1.1,0.2-2.2,0.7-3.1
				c0.5-0.9,1.1-1.6,1.9-2.1c0.8-0.5,1.7-0.8,2.8-0.8c1,0,1.9,0.2,2.7,0.7s1.5,1.1,2,2c0.5,0.8,0.7,1.8,0.7,2.8c0,1.1-0.2,2.1-0.7,3
				c-0.5,0.9-1.1,1.6-2,2.2C136.9,287.2,136,287.4,134.9,287.4z M135.1,286.6c0.8,0,1.4-0.2,1.8-0.6c0.4-0.4,0.8-1,1-1.7
				c0.2-0.7,0.3-1.4,0.3-2.2c0-0.6-0.1-1.3-0.2-1.9c-0.1-0.6-0.3-1.2-0.6-1.7c-0.3-0.5-0.6-0.9-1-1.2c-0.4-0.3-0.9-0.5-1.5-0.5
				c-0.7,0-1.4,0.2-1.8,0.6s-0.8,1-1,1.7c-0.2,0.7-0.3,1.4-0.3,2.2c0,0.9,0.1,1.7,0.4,2.5c0.2,0.8,0.6,1.5,1.1,2
				S134.4,286.6,135.1,286.6z"/>
			<path d="M142.2,287.1v-0.6c0.4,0,0.8-0.1,0.9-0.3c0.2-0.2,0.3-0.5,0.3-0.9c0-0.4,0-0.9,0-1.4v-4.9c0-0.2,0-0.5,0-0.7
				c0-0.2,0-0.5,0.1-0.7c-0.3,0-0.5,0-0.8,0c-0.3,0-0.5,0-0.8,0v-0.9c0.6,0,1.1,0,1.4-0.1c0.3-0.1,0.6-0.1,0.7-0.2
				c0.2-0.1,0.3-0.2,0.4-0.3h0.6c0,0.1,0,0.3,0.1,0.5c0,0.2,0,0.4,0,0.6c0.4-0.4,0.9-0.7,1.5-0.9c0.6-0.2,1.1-0.4,1.7-0.4
				c0.7,0,1.3,0.1,1.8,0.4c0.5,0.3,0.9,0.6,1.1,1.1c0.5-0.4,1.1-0.7,1.7-1c0.6-0.3,1.3-0.4,1.9-0.4c1.3,0,2.2,0.4,2.8,1.1
				s0.9,2,0.8,3.7l0,4c0,0.3,0,0.5,0,0.8c0,0.2,0,0.5-0.1,0.7c0.2,0,0.5,0,0.7,0c0.2,0,0.4,0,0.7,0v0.9h-4.4v-0.6
				c0.4,0,0.8-0.1,0.9-0.3c0.2-0.2,0.3-0.5,0.3-0.9c0-0.4,0-0.9,0-1.4v-3c0-1.2-0.2-2.2-0.6-2.8s-1-0.9-1.9-0.9
				c-0.4,0-0.9,0.1-1.3,0.3c-0.4,0.2-0.8,0.5-1.2,0.8c0.1,0.2,0.1,0.5,0.2,0.7c0,0.3,0.1,0.5,0.1,0.8c0,0.8,0,1.7,0,2.5
				c0,0.9,0,1.7,0,2.5c0,0.3,0,0.5,0,0.8c0,0.2,0,0.5-0.1,0.7c0.2,0,0.5,0,0.7,0c0.2,0,0.4,0,0.7,0v0.9h-4.4v-0.6
				c0.4,0,0.8-0.1,0.9-0.3c0.2-0.2,0.3-0.5,0.3-0.9c0-0.4,0.1-0.9,0.1-1.4l0-3c0-1.2-0.2-2.2-0.5-2.8s-1-0.9-1.8-0.9
				c-0.4,0-0.9,0.1-1.3,0.3c-0.4,0.2-0.8,0.4-1.1,0.7c0,0.2,0,0.4,0,0.6c0,0.2,0,0.4,0,0.6v5.6c0,0.3,0,0.5,0,0.8
				c0,0.2,0,0.5-0.1,0.7c0.2,0,0.5,0,0.7,0c0.2,0,0.5,0,0.7,0v0.9H142.2z"/>
			<path d="M166.8,287.4c-1,0-1.9-0.2-2.7-0.7s-1.4-1.1-1.9-2c-0.5-0.9-0.7-1.9-0.7-3c0-1,0.2-2,0.7-2.8c0.5-0.9,1.1-1.6,1.9-2.1
				s1.8-0.8,2.9-0.8c0.6,0,1.2,0.1,1.7,0.3c0.5,0.2,1,0.5,1.4,0.9c0.4,0.4,0.7,0.9,1,1.5c0.2,0.6,0.3,1.3,0.3,2.1l-7.6,0.1
				c0,1.1,0.1,2.1,0.4,2.9c0.2,0.8,0.6,1.5,1.2,1.9c0.5,0.5,1.2,0.7,2.1,0.7c0.4,0,0.9-0.1,1.4-0.2c0.5-0.2,0.9-0.4,1.3-0.6
				c0.4-0.3,0.7-0.6,1-0.9l0.5,0.4c-0.4,0.6-0.9,1.1-1.4,1.4c-0.5,0.4-1.1,0.6-1.7,0.8C167.8,287.4,167.3,287.4,166.8,287.4z
				 M163.8,279.9h5.5c0-0.5-0.1-1-0.2-1.5s-0.4-0.9-0.7-1.2s-0.8-0.5-1.4-0.5c-0.8,0-1.5,0.2-2.1,0.7
				C164.3,278,164,278.8,163.8,279.9z"/>
			<path d="M190.5,276.5c0-0.8-0.1-1.6-0.3-2.1c-0.2-0.6-0.4-1-0.8-1.3c-0.4-0.3-1-0.4-1.7-0.4h-1.8l0,11.8c0,0.4,0,0.7,0,1
				c0,0.3,0,0.5-0.1,0.7c0.3,0,0.6,0,0.9,0c0.3,0,0.6,0,0.9,0v1h-5.1v-0.7c0.5,0,0.9-0.2,1.1-0.4s0.3-0.5,0.3-0.9c0-0.4,0-0.8,0-1.3
				l0-11l-2.2,0c-0.9,0-1.5,0.3-1.9,0.9c-0.4,0.6-0.6,1.5-0.6,2.8h-0.8l0.1-4.6h12.6l0.1,4.6H190.5z"/>
			<path d="M198,287.4c-1,0-1.9-0.2-2.7-0.7c-0.8-0.5-1.4-1.1-1.9-2c-0.5-0.9-0.7-1.9-0.7-3c0-1,0.2-2,0.7-2.8
				c0.5-0.9,1.1-1.6,1.9-2.1c0.8-0.5,1.8-0.8,2.9-0.8c0.6,0,1.2,0.1,1.7,0.3c0.5,0.2,1,0.5,1.4,0.9c0.4,0.4,0.7,0.9,1,1.5
				s0.3,1.3,0.3,2.1l-7.6,0.1c0,1.1,0.1,2.1,0.4,2.9s0.6,1.5,1.2,1.9c0.5,0.5,1.2,0.7,2.1,0.7c0.4,0,0.9-0.1,1.4-0.2
				c0.5-0.2,0.9-0.4,1.3-0.6s0.7-0.6,1-0.9l0.5,0.4c-0.4,0.6-0.9,1.1-1.4,1.4c-0.5,0.4-1.1,0.6-1.7,0.8
				C199,287.4,198.5,287.4,198,287.4z M195,279.9h5.5c0-0.5-0.1-1-0.2-1.5c-0.2-0.5-0.4-0.9-0.7-1.2s-0.8-0.5-1.4-0.5
				c-0.8,0-1.5,0.2-2.1,0.7C195.5,278,195.2,278.8,195,279.9z"/>
			<path d="M211,287.1c0-0.2-0.1-0.5-0.1-0.6c0-0.2,0-0.4-0.1-0.6c-0.5,0.5-1,0.9-1.6,1.2c-0.6,0.3-1.2,0.4-1.8,0.4
				c-1.1,0-1.9-0.2-2.4-0.7c-0.5-0.5-0.8-1.1-0.8-1.8c0-0.7,0.2-1.2,0.6-1.7c0.4-0.5,0.9-0.9,1.6-1.2s1.4-0.5,2.1-0.7
				s1.5-0.2,2.2-0.2v-1.3c0-0.5,0-1-0.1-1.4c-0.1-0.4-0.3-0.8-0.6-1.1s-0.7-0.4-1.4-0.5c-0.4,0-0.8,0.1-1.3,0.2
				c-0.4,0.2-0.8,0.5-1,0.9c0.1,0.1,0.2,0.2,0.2,0.4c0,0.2,0.1,0.3,0.1,0.4c0,0.2-0.1,0.4-0.2,0.6c-0.1,0.2-0.4,0.3-0.8,0.3
				c-0.3,0-0.5-0.1-0.7-0.3c-0.2-0.2-0.2-0.5-0.2-0.7c0-0.5,0.2-0.9,0.6-1.3s0.9-0.7,1.5-0.9c0.6-0.2,1.4-0.3,2.2-0.3
				c1.2,0,2.1,0.3,2.7,1c0.6,0.6,0.9,1.7,0.8,3c0,0.5,0,1.1,0,1.6s0,1.1,0,1.6c0,0.5,0,1.1,0,1.6c0,0.2,0,0.5,0,0.7
				c0,0.2,0,0.5-0.1,0.8c0.3,0,0.5,0,0.8,0c0.3,0,0.5,0,0.8,0v0.9H211z M210.8,281.8c-0.5,0-1,0.1-1.5,0.2s-1,0.3-1.5,0.5
				c-0.5,0.2-0.8,0.5-1.1,0.9c-0.3,0.4-0.4,0.8-0.4,1.3c0,0.5,0.2,0.9,0.5,1.2s0.7,0.4,1.2,0.4c0.6,0,1.1-0.1,1.5-0.3
				c0.4-0.2,0.9-0.5,1.3-0.9c0-0.2,0-0.3,0-0.5c0-0.2,0-0.4,0-0.6c0-0.1,0-0.3,0-0.7C210.8,282.8,210.8,282.3,210.8,281.8z"/>
			<path d="M215.6,287.1v-0.6c0.4,0,0.8-0.1,0.9-0.3c0.2-0.2,0.3-0.5,0.3-0.9c0-0.4,0-0.9,0-1.4v-4.9c0-0.2,0-0.5,0-0.7
				c0-0.2,0-0.5,0.1-0.7c-0.3,0-0.5,0-0.8,0c-0.3,0-0.5,0-0.8,0v-0.9c0.6,0,1.1,0,1.4-0.1c0.3-0.1,0.6-0.1,0.7-0.2
				c0.2-0.1,0.3-0.2,0.4-0.3h0.6c0,0.1,0,0.3,0.1,0.5c0,0.2,0,0.4,0,0.6c0.4-0.4,0.9-0.7,1.5-0.9s1.1-0.4,1.7-0.4
				c0.7,0,1.3,0.1,1.8,0.4c0.5,0.3,0.9,0.6,1.1,1.1c0.5-0.4,1.1-0.7,1.7-1c0.6-0.3,1.3-0.4,1.9-0.4c1.3,0,2.2,0.4,2.8,1.1
				c0.6,0.8,0.9,2,0.8,3.7l0,4c0,0.3,0,0.5,0,0.8c0,0.2,0,0.5-0.1,0.7c0.2,0,0.5,0,0.7,0c0.2,0,0.5,0,0.7,0v0.9h-4.4v-0.6
				c0.4,0,0.8-0.1,0.9-0.3c0.2-0.2,0.3-0.5,0.3-0.9c0-0.4,0-0.9,0-1.4v-3c0-1.2-0.2-2.2-0.6-2.8c-0.4-0.6-1-0.9-1.9-0.9
				c-0.4,0-0.9,0.1-1.3,0.3c-0.4,0.2-0.8,0.5-1.2,0.8c0.1,0.2,0.1,0.5,0.2,0.7c0,0.3,0.1,0.5,0.1,0.8c0,0.8,0,1.7,0,2.5
				c0,0.9,0,1.7,0,2.5c0,0.3,0,0.5,0,0.8c0,0.2,0,0.5-0.1,0.7c0.2,0,0.5,0,0.7,0c0.2,0,0.5,0,0.7,0v0.9h-4.4v-0.6
				c0.4,0,0.8-0.1,0.9-0.3c0.2-0.2,0.3-0.5,0.3-0.9c0-0.4,0.1-0.9,0.1-1.4l0-3c0-1.2-0.2-2.2-0.5-2.8c-0.4-0.6-1-0.9-1.8-0.9
				c-0.4,0-0.9,0.1-1.3,0.3c-0.4,0.2-0.8,0.4-1.1,0.7c0,0.2,0,0.4,0,0.6c0,0.2,0,0.4,0,0.6v5.6c0,0.3,0,0.5,0,0.8
				c0,0.2,0,0.5-0.1,0.7c0.2,0,0.5,0,0.7,0c0.2,0,0.4,0,0.7,0v0.9H215.6z"/>
		</g>
	</g>
	<g>
		<g>
			<path d="M64.5,286.9l-12.3-5.4v-1.8l12.3-5.5v1.7l-10.4,4.6l10.4,4.6V286.9z"/>
		</g>
	</g>
	<g>
		<g>
			<path d="M281.1,274.2l12.3,5.4v1.8l-12.3,5.5v-1.7l10.4-4.6l-10.4-4.6V274.2z"/>
		</g>
	</g>
</g>
</svg>
